<mxfile host="app.diagrams.net" modified="2023-04-13T07:50:24.448Z" agent="Mozilla/5.0 (Macintosh; Intel Mac OS X 10_15_7) AppleWebKit/537.36 (KHTML, like Gecko) Chrome/111.0.0.0 Safari/537.36" etag="0mylFf-oLownw1BZkQFq" version="21.1.7" type="github">
  <diagram name="第 1 页" id="Dyvt2ynWHpgRhFUucZ-G">
    <mxGraphModel dx="1434" dy="641" grid="1" gridSize="10" guides="1" tooltips="1" connect="1" arrows="1" fold="1" page="1" pageScale="1" pageWidth="827" pageHeight="1169" math="0" shadow="0">
      <root>
        <mxCell id="0" />
        <mxCell id="1" parent="0" />
        <mxCell id="skxfKjlBGfwdxiB5EmVd-1" value="aapt2 compile process&amp;nbsp;" style="text;html=1;strokeColor=none;fillColor=none;align=center;verticalAlign=middle;whiteSpace=wrap;rounded=0;fontStyle=1;fontSize=23;" vertex="1" parent="1">
          <mxGeometry x="210" y="30" width="290" height="20" as="geometry" />
        </mxCell>
        <mxCell id="skxfKjlBGfwdxiB5EmVd-5" value="CompileTable" style="swimlane;whiteSpace=wrap;html=1;" vertex="1" parent="1">
          <mxGeometry x="100" y="90" width="130" height="70" as="geometry" />
        </mxCell>
        <mxCell id="skxfKjlBGfwdxiB5EmVd-2" value="values/*.xml" style="rounded=0;whiteSpace=wrap;html=1;" vertex="1" parent="skxfKjlBGfwdxiB5EmVd-5">
          <mxGeometry x="15" y="30" width="100" height="30" as="geometry" />
        </mxCell>
        <mxCell id="skxfKjlBGfwdxiB5EmVd-7" value="CompileXml" style="swimlane;whiteSpace=wrap;html=1;" vertex="1" parent="1">
          <mxGeometry x="380" y="90" width="130" height="160" as="geometry" />
        </mxCell>
        <mxCell id="skxfKjlBGfwdxiB5EmVd-8" value="xml/**" style="rounded=0;whiteSpace=wrap;html=1;" vertex="1" parent="skxfKjlBGfwdxiB5EmVd-7">
          <mxGeometry x="15" y="30" width="100" height="30" as="geometry" />
        </mxCell>
        <mxCell id="skxfKjlBGfwdxiB5EmVd-9" value="**/*.xml" style="rounded=0;whiteSpace=wrap;html=1;" vertex="1" parent="skxfKjlBGfwdxiB5EmVd-7">
          <mxGeometry x="15" y="70" width="100" height="30" as="geometry" />
        </mxCell>
        <mxCell id="skxfKjlBGfwdxiB5EmVd-10" value="exclude raw/**" style="rounded=0;whiteSpace=wrap;html=1;" vertex="1" parent="skxfKjlBGfwdxiB5EmVd-7">
          <mxGeometry x="15" y="110" width="100" height="30" as="geometry" />
        </mxCell>
        <mxCell id="skxfKjlBGfwdxiB5EmVd-11" value="CompilePng" style="swimlane;whiteSpace=wrap;html=1;" vertex="1" parent="1">
          <mxGeometry x="240" y="90" width="130" height="110" as="geometry" />
        </mxCell>
        <mxCell id="skxfKjlBGfwdxiB5EmVd-12" value="**/*.png" style="rounded=0;whiteSpace=wrap;html=1;" vertex="1" parent="skxfKjlBGfwdxiB5EmVd-11">
          <mxGeometry x="15" y="30" width="100" height="30" as="geometry" />
        </mxCell>
        <mxCell id="skxfKjlBGfwdxiB5EmVd-13" value="**/*.9.png" style="rounded=0;whiteSpace=wrap;html=1;" vertex="1" parent="skxfKjlBGfwdxiB5EmVd-11">
          <mxGeometry x="15" y="70" width="100" height="30" as="geometry" />
        </mxCell>
        <mxCell id="skxfKjlBGfwdxiB5EmVd-15" value="CompileFile" style="swimlane;whiteSpace=wrap;html=1;" vertex="1" parent="1">
          <mxGeometry x="520" y="90" width="130" height="70" as="geometry" />
        </mxCell>
        <mxCell id="skxfKjlBGfwdxiB5EmVd-16" value="raw/**" style="rounded=0;whiteSpace=wrap;html=1;" vertex="1" parent="skxfKjlBGfwdxiB5EmVd-15">
          <mxGeometry x="15" y="30" width="100" height="30" as="geometry" />
        </mxCell>
      </root>
    </mxGraphModel>
  </diagram>
</mxfile>
